<?xml version="1.0" standalone="no"?>
<!DOCTYPE svg PUBLIC "-//W3C//DTD SVG 20010904//EN"
 "http://www.w3.org/TR/2001/REC-SVG-20010904/DTD/svg10.dtd">
<svg version="1.0" xmlns="http://www.w3.org/2000/svg"
 width="112.000000pt" height="116.000000pt" viewBox="0 0 112.000000 116.000000"
 preserveAspectRatio="xMidYMid meet">

<g transform="translate(0.000000,116.000000) scale(0.100000,-0.100000)"
fill="#000000" stroke="none">
<path d="M0 580 l0 -580 560 0 560 0 0 580 0 580 -560 0 -560 0 0 -580z m718
328 c75 -44 143 -87 150 -96 8 -11 12 -61 12 -167 0 -141 -2 -154 -25 -201
-14 -28 -35 -60 -48 -71 -45 -42 -241 -173 -258 -173 -24 0 -224 135 -271 184
-54 55 -68 111 -68 271 0 98 4 136 15 151 8 12 47 41 87 65 187 111 223 130
246 124 13 -3 85 -42 160 -87z"/>
<path d="M394 877 l-139 -83 -3 -139 c-2 -79 2 -156 7 -176 12 -39 104 -134
121 -124 6 3 10 32 10 63 0 43 -7 72 -30 117 -50 100 -36 207 36 279 16 16 47
37 69 47 120 55 275 -33 275 -157 0 -23 10 -57 25 -83 32 -56 32 -88 0 -103
-20 -9 -25 -18 -25 -48 0 -43 -19 -64 -70 -77 -32 -8 -35 -12 -38 -51 -2 -25
1 -42 8 -42 25 0 152 104 175 145 25 41 25 48 23 196 l-3 154 -135 82 c-74 45
-142 82 -151 82 -9 1 -78 -36 -155 -82z"/>
<path d="M455 816 c-38 -23 -74 -73 -90 -123 -6 -21 -3 -23 29 -23 33 0 36 3
36 28 0 39 17 52 66 52 24 0 46 5 49 10 10 17 62 12 69 -6 11 -30 -3 -54 -33
-54 -15 0 -32 5 -38 11 -6 6 -26 9 -44 7 -28 -2 -35 -8 -37 -28 -6 -38 -21
-50 -64 -50 -27 0 -38 -4 -36 -12 7 -21 171 -23 188 -3 16 19 44 19 60 0 27
-33 -13 -80 -50 -57 -20 12 -180 18 -180 6 0 -3 9 -19 21 -35 22 -32 44 -36
73 -14 25 19 56 3 56 -30 0 -33 -31 -49 -56 -30 -11 8 -27 15 -36 15 -16 0
-18 -10 -18 -80 l0 -80 48 -35 c61 -45 87 -52 112 -30 16 15 20 31 20 86 0 74
11 89 63 89 33 0 45 17 49 70 2 38 7 46 26 48 12 2 22 5 22 7 0 1 -11 23 -25
46 -14 26 -25 60 -25 83 0 123 -145 198 -255 132z"/>
<path d="M570 735 c0 -8 5 -15 10 -15 6 0 10 7 10 15 0 8 -4 15 -10 15 -5 0
-10 -7 -10 -15z"/>
<path d="M570 600 c0 -5 5 -10 10 -10 6 0 10 5 10 10 0 6 -4 10 -10 10 -5 0
-10 -4 -10 -10z"/>
<path d="M486 501 c-4 -5 -2 -12 3 -15 5 -4 12 -2 15 3 4 5 2 12 -3 15 -5 4
-12 2 -15 -3z"/>
</g>
</svg>
